# xmcd
# Copyright (C) 1995-1998 Ti Kan
#
# Track frame offsets:
#       150
#       17034
#       30862
#       47229
#       62644
#       78124
#       93706
#       107126
#       126850
#       140026
#
# Disc length: 2123 seconds
#
# Revision: 0
# Processed by: cddbd v1.5.2PL0 Copyright (c) Steve Scherf et al.
# Submitted via: CD-Import v1.0
#
DISCID=8008490a
DTITLE=Hno - Can't Stop
DYEAR=05
DGENRE=
TTITLE0=Do It Again
TTITLE1=The Thing Called Love
TTITLE2=Toothbrush
TTITLE3=Smalltown Kids
TTITLE4=Die For My Style
TTITLE5=Another Day
TTITLE6=Can't Stop
TTITLE7=Work For You
TTITLE8=Get Faster
TTITLE9=Pet Shop Sales Girl
EXTD=
EXTT0=
EXTT1=
EXTT2=
EXTT3=
EXTT4=
EXTT5=
EXTT6=
EXTT7=
EXTT8=
EXTT9=
PLAYORDER=
